{"title":"Intersections.2013.DVDRip.Swesub.Xvid","uid":8555832,"size":733479327,"categoryP":"video","categoryS":"movies","magnet":"?xt=urn:btih:0999b18085f0bd08bd7d7a836996acfe6dcecb7a&amp;dn=Intersections.2013.DVDRip.Swesub.Xvid&amp;tr=udp%3A%2F%2Ftracker.openbittorrent.com%3A80&amp;tr=udp%3A%2F%2Fopen.demonii.com%3A1337&amp;tr=udp%3A%2F%2Ftracker.coppersurfer.tk%3A6969&amp;tr=udp%3A%2F%2Fexodus.desync.com%3A6969","seeders":2,"leechers":1,"uploader":"nordjok","files":-1,"time":1370766271,"description":"                              Swedish Hardsub\n\n &lt;a href=&quot;\nhttp://www.imdb.com/title/tt1680123/&quot; rel=&quot;nofollow&quot; target=&quot;_NEW&quot;&gt;\nhttp://www.imdb.com/title/tt1680123/&lt;/a&gt;\n\nGeneral\nComplete name                       : Intersections.2013.DVDRip.Swesub.Xvid.avi\nFormat                              : AVI\nFormat/Info                         : Audio Video Interleave\nFile size                           : 699 MiB\nDuration                            : 1h 37mn\n\n\nVideo\nID                                  : 0\nFormat                              : MPEG-4 Visual\nFormat profile                      : Advanced Simple@L5\nFormat settings, BVOP               : 2\nFormat settings, QPel               : No\nFormat settings, GMC                : No warppoints\nFormat settings, Matrix             : Default (H.263)\nCodec ID                            : XVID\nCodec ID/Hint                       : XviD\nDuration                            : 1h 37mn\nBit rate                            : 859 Kbps\nWidth                               : 720 pixels\nHeight                              : 304 pixels\nDisplay aspect ratio                : 2.35:1\nFrame rate                          : 25.000 fps\nColor space                         : YUV\nChroma subsampling                  : 4:2:0\nBit depth                           : 8 bits\nScan type                           : Progressive\nCompression mode                    : Lossy\nBits/(Pixel*Frame)                  : 0.157\nStream size                         : 597 MiB (85%)\nWriting library                     : XviD 73\n\nAudio\nID                                  : 1\nFormat                              : MPEG Audio\nFormat version                      : Version 1\nFormat profile                      : Layer 3\nCodec ID                            : 55\nCodec ID/Hint                       : MP3\nDuration                            : 1h 37mn\nBit rate mode                       : Variable\nBit rate                            : 135 Kbps\nMinimum bit rate                    : 32.0 Kbps\nChannel(s)                          : 2 channels\nSampling rate                       : 48.0 KHz\nCompression mode                    : Lossy\nStream size                         : 93.7 MiB (13%)\nAlignment                           : Aligned on interleaves\nInterleave, duration                : 24 ms (0.60 video frame)\nInterleave, preload duration        : 136 ms\nWriting library                     : LAME3.99r\nEncoding settings                   : -m s -V 5 -q 0 -lowpass 17 --vbr-new -b 32\n","torrent":{"xt":"urn:btih:0999b18085f0bd08bd7d7a836996acfe6dcecb7a","amp;dn":"Intersections.2013.DVDRip.Swesub.Xvid","amp;tr":["udp%3A%2F%2Ftracker.openbittorrent.com%3A80","udp%3A%2F%2Fopen.demonii.com%3A1337","udp%3A%2F%2Ftracker.coppersurfer.tk%3A6969","udp%3A%2F%2Fexodus.desync.com%3A6969"],"infoHash":"0999b18085f0bd08bd7d7a836996acfe6dcecb7a","infoHashBuffer":{"type":"Buffer","data":[9,153,177,128,133,240,189,8,189,125,122,131,105,150,172,254,109,206,203,122]},"announce":[],"urlList":[]}}